<svg width="164" height="32" viewBox="0 0 164 32" fill="none" xmlns="http://www.w3.org/2000/svg">
<g clip-path="url(#clip0_20_52)">
<path d="M147.449 7.78394C142.943 7.78394 139.295 11.4613 139.295 15.9946C139.295 20.5319 142.947 24.2053 147.449 24.2053C151.955 24.2053 155.602 20.5279 155.602 15.9946C155.602 11.4573 151.951 7.78394 147.449 7.78394ZM147.449 21.3239C144.524 21.3239 142.156 18.9386 142.156 15.9946C142.156 13.0506 144.525 10.6653 147.449 10.6653C150.372 10.6653 152.741 13.0506 152.741 15.9946C152.742 18.9386 150.374 21.3239 147.449 21.3239Z" fill="white"/>
<path d="M153.995 0.101248C151.071 -0.0360854 143.83 -0.0294187 140.904 0.101248C138.332 0.222581 136.064 0.847914 134.235 2.68925C131.179 5.76658 131.57 9.91325 131.57 15.9946C131.57 22.2186 131.226 26.2692 134.235 29.2999C137.303 32.3879 141.481 31.9839 147.449 31.9839C153.571 31.9839 155.685 31.9879 157.849 31.1439C160.793 29.9932 163.015 27.3439 163.232 22.5852C163.37 19.6399 163.362 12.3492 163.232 9.40258C162.97 3.78525 159.976 0.378581 153.995 0.101248ZM158.623 27.2639C156.619 29.2812 153.84 29.1012 147.41 29.1012C140.79 29.1012 138.135 29.1999 136.198 27.2439C133.967 25.0079 134.371 21.4172 134.371 15.9732C134.371 8.60658 133.62 3.30125 140.962 2.92258C142.649 2.86258 143.145 2.84258 147.392 2.84258L147.451 2.88258C154.507 2.88258 160.043 2.13858 160.376 9.53058C160.451 11.2172 160.468 11.7239 160.468 15.9932C160.467 22.5826 160.592 25.2719 158.623 27.2639Z" fill="white"/>
<path d="M155.926 9.37859C156.978 9.37859 157.831 8.51957 157.831 7.45992C157.831 6.40027 156.978 5.54126 155.926 5.54126C154.873 5.54126 154.02 6.40027 154.02 7.45992C154.02 8.51957 154.873 9.37859 155.926 9.37859Z" fill="white"/>
</g>
<g clip-path="url(#clip1_20_52)">
<path d="M100.328 20.2415L99.8024 27.6868C100.554 27.6868 100.88 27.3615 101.271 26.9708L104.797 23.5775L112.103 28.9655C113.443 29.7175 114.387 29.3215 114.749 27.7241L119.545 5.0948L119.546 5.09347C119.971 3.0988 118.83 2.3188 117.524 2.80813L89.3341 13.6761C87.4102 14.4281 87.4393 15.5081 89.0071 15.9975L96.2141 18.2548L112.955 7.7068C113.742 7.18147 114.459 7.47213 113.87 7.99747L100.328 20.2415Z" fill="white"/>
</g>
<g clip-path="url(#clip2_20_52)">
<path d="M75.2392 7.90543L75.2789 8.16677C74.8949 6.79477 73.8581 5.7361 72.5407 5.35077L72.5128 5.3441C70.0355 4.66677 60.0664 4.66677 60.0664 4.66677C60.0664 4.66677 50.1224 4.65343 47.6199 5.3441C46.2772 5.7361 45.2391 6.79477 44.8618 8.13877L44.8551 8.16677C43.9296 13.0348 43.923 18.8841 44.8962 24.0961L44.8551 23.8321C45.2391 25.2041 46.2759 26.2628 47.5934 26.6481L47.6212 26.6548C50.0959 27.3334 60.0677 27.3334 60.0677 27.3334C60.0677 27.3334 70.0103 27.3334 72.5142 26.6548C73.8581 26.2628 74.8962 25.2041 75.2736 23.8601L75.2802 23.8321C75.7013 21.5681 75.9423 18.9628 75.9423 16.3014C75.9423 16.2041 75.9423 16.1054 75.9409 16.0068C75.9423 15.9161 75.9423 15.8081 75.9423 15.7001C75.9423 13.0374 75.7013 10.4321 75.2392 7.90543ZM56.8859 20.8681V11.1441L65.1827 16.0134L56.8859 20.8681Z" fill="white"/>
</g>
<g clip-path="url(#clip3_20_52)">
<path d="M21.6503 5.31333H24.5514V0.225333C24.0509 0.156 22.3296 0 20.3249 0C16.1421 0 13.2767 2.64933 13.2767 7.51867V12H8.66095V17.688H13.2767V32H18.9359V17.6893H23.365L24.0681 12.0013H18.9346V8.08267C18.9359 6.43867 19.3755 5.31333 21.6503 5.31333Z" fill="white"/>
</g>
<defs>
<clipPath id="clip0_20_52">
<rect width="31.7783" height="32" fill="white" transform="translate(131.554)"/>
</clipPath>
<clipPath id="clip1_20_52">
<rect width="31.7783" height="32" fill="white" transform="translate(87.8591)"/>
</clipPath>
<clipPath id="clip2_20_52">
<rect width="31.7783" height="32" fill="white" transform="translate(44.1639)"/>
</clipPath>
<clipPath id="clip3_20_52">
<rect width="31.7783" height="32" fill="white" transform="translate(0.46875)"/>
</clipPath>
</defs>
</svg>
